A mountain climber becomes trapped under a boulder while canyoneering alone near Moab, Utah and resorts to desperate measures in order to survive. 

Filminfo :  

General
Complete name                    : E:\torrent2\127 Hours.Blu-ray rip. MKV .x264. 1080p. DTS 5.1.ACB-Team\127 Hours.Blu-ray rip. MKV .x264. 1080p. DTS 5.1.ACB-Team.mkv
Format                           : Matroska
File size                        : 11.4 GiB
Duration                         : 1h 33mn
Overall bit rate                 : 17.5 Mbps
Movie name                       : movie
Encoded date                     : UTC 2011-02-26 19:05:21
Writing application              : mkvmerge v3.2.0 ('Beginnings') built on Feb 12 2010 16:46:17
Writing library                  : libebml v0.7.9 + libmatroska v0.8.1

Video
ID                               : 1
Format                           : AVC
Format/Info                      : Advanced Video Codec
Format profile                   : High@L4.1
Format settings, CABAC           : Yes
Format settings, ReFrames        : 3 frames
Muxing mode                      : Container profile=Unknown@0.0
Codec ID                         : V_MPEG4/ISO/AVC
Duration                         : 1h 33mn
Bit rate mode                    : Variable
Bit rate                         : 16.4 Mbps
Maximum bit rate                 : 35.0 Mbps
Width                            : 1 920 pixels
Height                           : 1 080 pixels
Display aspect ratio             : 16:9
Frame rate                       : 23.976 fps
Color space                      : YUV
Chroma subsampling               : 4:2:0
Bit depth                        : 8 bits
Scan type                        : Progressive
Bits/(Pixel*Frame)               : 0.330
Stream size                      : 10.2 GiB (89%)
Writing library                  : x264 core 114 r1900 60ef1f8
Encoding settings                : cabac=1 / ref=1 / deblock=1:0:0 / analyse=0x3:0x3 / me=dia / subme=1 / psy=1 / psy_rd=0.00:0.00 / mixed_ref=0 / me_range=16 / chroma_me=1 / trellis=0 / 8x8dct=1 / cqm=0 / deadzone=21,11 / fast_pskip=1 / chroma_qp_offset=0 / threads=3 / sliced_threads=0 / slices=4 / nr=0 / decimate=1 / interlaced=0 / constrained_intra=0 / bframes=3 / b_pyramid=1 / b_adapt=1 / b_bias=0 / direct=1 / weightb=1 / open_gop=0 / weightp=1 / keyint=24 / keyint_min=1 / scenecut=40 / intra_refresh=0 / rc_lookahead=0 / rc=abr / mbtree=0 / bitrate=16392 / ratetol=1.0 / qcomp=0.60 / qpmin=0 / qpmax=69 / qpstep=4 / vbv_maxrate=35000 / vbv_bufsize=30000 / nal_hrd=vbr / ip_ratio=1.10 / pb_ratio=1.10 / aq=1:1.00
Language                         : English

Audio
ID                               : 2
Format                           : DTS
Format/Info                      : Digital Theater Systems
Codec ID                         : A_DTS
Duration                         : 1h 33mn
Bit rate mode                    : Constant
Bit rate                         : 1 510 Kbps
Channel(s)                       : 6 channels
Channel positions                : Front: L C R, Side: L R, LFE
Sampling rate                    : 48.0 KHz
Bit depth                        : 24 bits
Stream size                      : 1 012 MiB (9%)
Language                         : English

Text
ID                               : 3
Format                           : UTF-8
Codec ID                         : S_TEXT/UTF8
Codec ID/Info                    : UTF-8 Plain Text
Language                         : Dutch

Menu
00:00:00.000                     : en:00:00:00.000
00:05:08.141                     : en:00:05:08.141
00:07:55.975                     : en:00:07:55.975
00:10:46.729                     : en:00:10:46.729
00:14:42.923                     : en:00:14:42.923
00:20:43.533                     : en:00:20:43.533
00:25:02.209                     : en:00:25:02.209
00:29:34.898                     : en:00:29:34.898
00:32:16.434                     : en:00:32:16.434
00:35:46.727                     : en:00:35:46.727
00:40:12.368                     : en:00:40:12.368
00:45:48.704                     : en:00:45:48.704
00:48:48.967                     : en:00:48:48.967
00:52:01.743                     : en:00:52:01.743
00:56:05.987                     : en:00:56:05.987
01:00:57.320                     : en:01:00:57.320
01:03:19.629                     : en:01:03:19.629
01:06:43.207                     : en:01:06:43.207
01:10:24.261                     : en:01:10:24.261
01:12:31.221                     : en:01:12:31.221
01:15:33.237                     : en:01:15:33.237
01:19:51.703                     : en:01:19:51.703
01:23:28.545                     : en:01:23:28.545
01:28:07.907                     : en:01:28:07.907

Release team ACB-Team.